<?xml version="1.0" encoding="utf-8"?>
<svg height="850" viewBox="0 0 772 850" width="772" xmlns="http://www.w3.org/2000/svg">
<path d="M 368,268 L 367,269 L 363,269 L 362,270 L 360,270 L 359,271 L 356,271 L 355,272 L 354,272 L 353,273 L 351,273 L 350,274 L 349,274 L 347,276 L 345,276 L 344,277 L 343,277 L 338,282 L 337,282 L 330,289 L 330,290 L 325,295 L 325,296 L 324,297 L 324,298 L 323,299 L 322,299 L 321,300 L 302,300 L 301,301 L 299,301 L 298,302 L 292,302 L 291,303 L 288,303 L 286,305 L 283,305 L 282,306 L 281,306 L 280,307 L 279,307 L 278,308 L 277,308 L 276,309 L 275,309 L 274,310 L 273,310 L 272,311 L 271,311 L 268,314 L 267,314 L 262,319 L 261,319 L 259,321 L 259,322 L 255,326 L 255,327 L 254,328 L 253,328 L 253,329 L 252,330 L 252,331 L 249,334 L 249,335 L 247,337 L 247,339 L 245,341 L 245,343 L 244,344 L 244,346 L 242,348 L 242,351 L 241,352 L 241,356 L 239,358 L 239,365 L 238,366 L 238,385 L 239,386 L 239,393 L 240,394 L 240,395 L 241,396 L 241,400 L 242,401 L 242,403 L 244,405 L 244,407 L 245,408 L 245,410 L 247,412 L 247,413 L 249,415 L 249,416 L 250,417 L 250,418 L 253,421 L 253,422 L 266,435 L 267,435 L 270,438 L 271,438 L 273,440 L 274,440 L 275,441 L 276,441 L 278,443 L 280,443 L 282,445 L 283,445 L 284,446 L 287,446 L 288,447 L 289,447 L 290,448 L 293,448 L 294,449 L 300,449 L 301,450 L 304,450 L 305,451 L 326,451 L 327,450 L 330,450 L 331,449 L 337,449 L 338,448 L 340,448 L 341,447 L 342,447 L 343,446 L 345,448 L 346,448 L 347,449 L 347,450 L 350,453 L 350,454 L 351,455 L 351,456 L 356,461 L 356,462 L 362,468 L 362,469 L 363,469 L 364,470 L 364,471 L 365,472 L 366,472 L 367,473 L 367,474 L 368,475 L 369,475 L 370,476 L 370,477 L 371,477 L 373,479 L 373,480 L 374,480 L 377,483 L 378,483 L 380,485 L 381,485 L 382,486 L 383,486 L 385,488 L 386,488 L 387,489 L 389,489 L 391,491 L 393,491 L 394,492 L 397,492 L 399,494 L 402,494 L 403,495 L 406,495 L 408,497 L 409,497 L 410,498 L 410,501 L 411,502 L 411,504 L 412,505 L 412,508 L 413,509 L 413,514 L 414,515 L 414,516 L 415,517 L 415,522 L 416,523 L 416,528 L 417,529 L 417,530 L 418,531 L 418,535 L 419,536 L 419,541 L 421,543 L 421,548 L 422,549 L 422,553 L 423,554 L 423,555 L 424,556 L 424,561 L 425,562 L 425,567 L 430,572 L 431,572 L 432,573 L 433,573 L 434,574 L 439,574 L 440,573 L 441,573 L 442,572 L 443,572 L 445,570 L 445,569 L 447,567 L 447,566 L 448,565 L 448,562 L 447,561 L 447,558 L 448,557 L 449,558 L 464,558 L 466,556 L 467,557 L 467,563 L 468,564 L 468,567 L 470,569 L 470,570 L 471,571 L 472,571 L 473,572 L 474,572 L 476,574 L 481,574 L 483,572 L 485,572 L 488,569 L 488,568 L 489,567 L 489,566 L 490,565 L 490,533 L 489,532 L 489,522 L 491,520 L 514,520 L 515,519 L 516,519 L 517,518 L 521,518 L 522,517 L 525,517 L 527,515 L 530,515 L 531,514 L 532,514 L 534,512 L 536,512 L 537,511 L 538,511 L 540,509 L 541,509 L 542,508 L 543,508 L 543,507 L 544,506 L 545,506 L 546,505 L 547,505 L 563,489 L 563,488 L 565,486 L 565,485 L 568,482 L 568,481 L 570,479 L 570,478 L 571,477 L 571,476 L 573,474 L 573,472 L 574,471 L 574,469 L 576,467 L 576,465 L 577,464 L 577,462 L 579,460 L 579,456 L 580,455 L 580,450 L 581,449 L 581,448 L 582,447 L 582,436 L 583,435 L 583,430 L 582,429 L 582,421 L 581,420 L 581,419 L 580,418 L 580,416 L 579,415 L 579,413 L 577,411 L 577,410 L 576,409 L 576,408 L 574,406 L 574,405 L 563,394 L 562,394 L 559,391 L 559,388 L 560,387 L 560,366 L 559,365 L 559,361 L 557,359 L 557,357 L 556,356 L 556,354 L 555,354 L 554,353 L 554,351 L 553,350 L 553,349 L 551,347 L 551,346 L 548,343 L 548,342 L 540,334 L 539,334 L 538,333 L 537,333 L 535,331 L 534,331 L 532,329 L 531,329 L 530,328 L 528,328 L 526,326 L 524,326 L 523,325 L 519,325 L 518,324 L 517,324 L 516,323 L 510,323 L 509,322 L 502,322 L 501,321 L 501,320 L 500,319 L 500,317 L 499,316 L 499,314 L 498,313 L 498,312 L 497,311 L 497,310 L 496,309 L 496,307 L 494,305 L 494,304 L 493,303 L 493,302 L 492,302 L 491,301 L 491,300 L 490,299 L 490,298 L 478,286 L 477,286 L 476,285 L 475,285 L 473,283 L 472,283 L 471,282 L 470,282 L 468,280 L 466,280 L 465,279 L 462,279 L 461,278 L 460,278 L 459,277 L 454,277 L 453,276 L 435,276 L 434,277 L 429,277 L 427,279 L 423,279 L 422,280 L 420,280 L 419,281 L 418,281 L 417,282 L 412,282 L 411,281 L 411,280 L 410,280 L 407,277 L 406,277 L 404,275 L 403,275 L 402,274 L 401,274 L 400,273 L 399,273 L 398,272 L 397,272 L 396,271 L 393,271 L 392,270 L 391,270 L 390,269 L 386,269 L 385,268 Z" fill="#d16ba5"/><path d="M 742,264 L 741,265 L 738,265 L 737,266 L 736,266 L 734,268 L 732,268 L 731,269 L 730,269 L 729,270 L 728,270 L 727,271 L 726,271 L 725,272 L 724,272 L 723,273 L 722,273 L 721,274 L 719,274 L 717,276 L 715,276 L 714,277 L 712,277 L 710,279 L 709,279 L 708,280 L 706,280 L 704,282 L 702,282 L 701,283 L 699,283 L 697,285 L 696,285 L 695,286 L 694,286 L 693,287 L 692,287 L 691,288 L 689,288 L 688,289 L 687,289 L 686,290 L 685,290 L 684,291 L 683,291 L 682,292 L 681,292 L 680,293 L 679,293 L 678,294 L 676,294 L 673,297 L 673,298 L 672,299 L 672,309 L 678,315 L 684,315 L 685,314 L 687,314 L 688,313 L 689,313 L 690,312 L 691,312 L 692,311 L 694,311 L 696,309 L 698,309 L 699,308 L 700,308 L 701,307 L 702,307 L 703,306 L 705,306 L 707,304 L 708,304 L 709,303 L 711,303 L 713,301 L 715,301 L 716,300 L 718,300 L 720,298 L 722,298 L 723,297 L 724,297 L 726,295 L 728,295 L 729,294 L 731,294 L 733,292 L 734,292 L 735,291 L 737,291 L 738,290 L 739,290 L 740,289 L 741,289 L 742,288 L 743,288 L 744,287 L 745,287 L 746,286 L 748,286 L 750,284 L 751,284 L 754,281 L 754,280 L 756,278 L 756,270 L 751,265 L 749,265 L 748,264 Z" fill="#d16ba5"/><path d="M 42,262 L 41,263 L 40,263 L 38,265 L 37,265 L 36,266 L 36,267 L 34,269 L 34,279 L 37,282 L 37,283 L 38,283 L 41,286 L 44,286 L 45,287 L 46,287 L 47,288 L 48,288 L 49,289 L 51,289 L 53,291 L 55,291 L 56,292 L 57,292 L 58,293 L 59,293 L 60,294 L 61,294 L 62,295 L 64,295 L 66,297 L 68,297 L 69,298 L 70,298 L 72,300 L 74,300 L 75,301 L 76,301 L 77,302 L 78,302 L 79,303 L 81,303 L 83,305 L 84,304 L 85,305 L 85,306 L 87,306 L 89,308 L 91,308 L 92,309 L 94,309 L 96,311 L 98,311 L 99,312 L 100,312 L 101,313 L 102,313 L 103,314 L 104,314 L 105,315 L 114,315 L 120,309 L 120,300 L 119,299 L 119,298 L 115,294 L 114,294 L 113,293 L 112,293 L 110,291 L 108,291 L 107,290 L 106,290 L 105,289 L 104,289 L 103,288 L 101,288 L 99,286 L 98,286 L 97,285 L 95,285 L 94,284 L 93,284 L 92,283 L 91,283 L 90,282 L 88,282 L 86,280 L 84,280 L 83,279 L 82,279 L 80,277 L 78,277 L 77,276 L 75,276 L 73,274 L 71,274 L 70,273 L 69,273 L 68,272 L 67,272 L 66,271 L 64,271 L 63,270 L 62,270 L 60,268 L 58,268 L 56,266 L 55,266 L 54,265 L 52,265 L 50,263 L 49,263 L 48,262 Z" fill="#d16ba5"/><path d="M 380,183 L 379,184 L 376,184 L 375,185 L 362,185 L 361,186 L 353,186 L 352,187 L 350,187 L 349,188 L 343,188 L 342,189 L 338,189 L 337,190 L 335,190 L 334,191 L 329,191 L 327,193 L 323,193 L 322,194 L 319,194 L 318,195 L 317,195 L 316,196 L 314,196 L 313,197 L 310,197 L 309,198 L 308,198 L 307,199 L 305,199 L 304,200 L 301,200 L 301,201 L 300,202 L 297,202 L 296,203 L 295,203 L 294,204 L 293,204 L 292,205 L 290,205 L 289,206 L 288,206 L 286,208 L 284,208 L 283,209 L 282,209 L 280,211 L 278,211 L 276,213 L 275,213 L 274,214 L 272,214 L 270,216 L 269,216 L 268,217 L 267,217 L 267,218 L 266,219 L 264,219 L 261,222 L 260,222 L 259,223 L 258,223 L 256,225 L 255,225 L 252,228 L 251,228 L 248,231 L 247,231 L 244,234 L 243,234 L 234,243 L 233,243 L 218,258 L 218,259 L 205,272 L 205,273 L 201,277 L 201,278 L 198,281 L 198,282 L 195,285 L 195,286 L 193,288 L 193,289 L 190,292 L 190,293 L 188,295 L 188,296 L 187,297 L 187,298 L 186,299 L 185,299 L 185,301 L 182,304 L 182,305 L 181,306 L 181,308 L 179,310 L 179,312 L 177,314 L 177,315 L 176,316 L 176,317 L 175,318 L 175,320 L 173,322 L 173,324 L 172,325 L 172,326 L 171,327 L 171,329 L 170,330 L 170,332 L 169,333 L 169,334 L 168,335 L 168,338 L 167,339 L 167,342 L 166,343 L 166,344 L 165,345 L 165,349 L 164,350 L 164,355 L 163,356 L 163,357 L 162,358 L 162,367 L 161,368 L 161,389 L 160,390 L 160,398 L 159,399 L 159,452 L 158,453 L 158,456 L 157,457 L 157,458 L 156,459 L 156,461 L 155,462 L 155,463 L 153,465 L 153,467 L 151,469 L 151,470 L 150,471 L 150,472 L 149,473 L 149,474 L 147,476 L 147,478 L 146,479 L 145,479 L 145,480 L 144,481 L 144,482 L 142,484 L 142,486 L 141,487 L 141,488 L 139,490 L 139,491 L 138,492 L 138,493 L 136,495 L 136,496 L 134,498 L 134,500 L 133,501 L 133,502 L 131,504 L 131,505 L 130,506 L 130,507 L 128,509 L 128,510 L 127,511 L 127,513 L 125,515 L 125,516 L 124,517 L 124,518 L 122,520 L 122,521 L 121,522 L 121,524 L 119,526 L 119,527 L 118,528 L 118,530 L 116,532 L 116,533 L 115,534 L 115,536 L 113,538 L 113,541 L 111,543 L 111,546 L 110,547 L 110,565 L 111,566 L 111,568 L 113,570 L 113,572 L 118,577 L 120,577 L 121,578 L 123,578 L 124,579 L 125,579 L 126,580 L 130,580 L 131,581 L 134,581 L 135,582 L 136,581 L 138,581 L 139,582 L 143,582 L 144,583 L 151,583 L 152,584 L 154,584 L 155,585 L 157,585 L 158,586 L 160,586 L 164,590 L 164,591 L 165,592 L 165,598 L 164,599 L 164,610 L 163,611 L 163,615 L 162,616 L 162,641 L 163,642 L 163,646 L 164,647 L 164,658 L 165,659 L 165,665 L 166,666 L 166,667 L 167,668 L 167,672 L 168,673 L 168,676 L 170,678 L 170,681 L 171,682 L 171,684 L 173,686 L 173,687 L 174,688 L 174,689 L 175,690 L 175,691 L 176,692 L 176,693 L 179,696 L 179,697 L 180,697 L 181,698 L 181,699 L 185,703 L 186,703 L 191,708 L 192,708 L 193,709 L 194,709 L 196,711 L 197,711 L 198,712 L 200,712 L 202,714 L 205,714 L 206,715 L 208,715 L 209,716 L 210,716 L 211,717 L 216,717 L 217,718 L 223,718 L 224,719 L 226,719 L 227,720 L 249,720 L 250,721 L 255,721 L 256,722 L 260,722 L 261,723 L 266,723 L 268,725 L 270,725 L 271,726 L 273,726 L 276,729 L 277,729 L 278,730 L 278,731 L 279,732 L 280,732 L 281,733 L 281,734 L 284,737 L 284,738 L 285,739 L 285,740 L 287,742 L 287,744 L 288,745 L 288,746 L 290,748 L 290,750 L 291,751 L 291,753 L 292,754 L 292,755 L 293,756 L 293,761 L 295,763 L 295,796 L 294,797 L 294,801 L 293,802 L 293,813 L 292,814 L 292,818 L 293,819 L 293,821 L 295,823 L 295,824 L 297,826 L 298,826 L 300,828 L 309,828 L 311,826 L 312,826 L 313,825 L 313,824 L 314,823 L 314,822 L 316,820 L 316,812 L 317,811 L 317,799 L 318,798 L 318,794 L 319,793 L 319,765 L 318,764 L 318,762 L 317,761 L 317,755 L 316,754 L 316,750 L 315,749 L 315,748 L 314,747 L 314,744 L 313,743 L 313,741 L 312,740 L 312,739 L 311,738 L 311,736 L 310,735 L 310,734 L 308,732 L 308,730 L 306,728 L 306,727 L 305,726 L 305,725 L 304,725 L 303,724 L 303,723 L 302,722 L 302,721 L 297,716 L 297,715 L 295,713 L 294,713 L 293,712 L 293,711 L 292,711 L 288,707 L 287,707 L 285,705 L 284,705 L 283,704 L 282,704 L 281,703 L 280,703 L 279,702 L 277,702 L 275,700 L 272,700 L 271,699 L 267,699 L 266,698 L 265,698 L 264,697 L 256,697 L 255,696 L 239,696 L 238,695 L 236,695 L 235,694 L 225,694 L 224,693 L 218,693 L 217,692 L 216,692 L 215,691 L 212,691 L 211,690 L 209,690 L 207,688 L 206,688 L 204,686 L 203,686 L 197,680 L 197,679 L 195,677 L 195,676 L 194,675 L 194,673 L 193,672 L 193,671 L 192,670 L 192,669 L 191,668 L 191,664 L 190,663 L 190,661 L 189,660 L 189,656 L 188,655 L 188,647 L 187,646 L 187,642 L 186,641 L 186,612 L 187,611 L 187,609 L 188,608 L 188,584 L 187,583 L 187,582 L 186,581 L 186,579 L 185,578 L 185,577 L 183,575 L 183,574 L 176,567 L 175,567 L 173,565 L 172,565 L 171,564 L 170,564 L 169,563 L 168,563 L 167,562 L 164,562 L 163,561 L 162,561 L 161,560 L 157,560 L 156,559 L 140,559 L 138,557 L 135,557 L 134,556 L 134,550 L 135,549 L 135,548 L 136,547 L 136,546 L 137,545 L 137,544 L 138,543 L 138,542 L 140,540 L 140,538 L 142,536 L 142,535 L 143,534 L 143,533 L 145,531 L 145,530 L 146,529 L 146,528 L 148,526 L 148,525 L 149,524 L 149,523 L 151,521 L 151,520 L 152,519 L 152,518 L 154,516 L 154,515 L 156,513 L 156,512 L 157,511 L 157,510 L 158,509 L 158,508 L 160,506 L 160,504 L 162,502 L 162,501 L 163,500 L 163,499 L 165,497 L 165,496 L 166,495 L 166,494 L 168,492 L 168,490 L 170,488 L 170,487 L 171,486 L 171,485 L 172,484 L 172,483 L 173,482 L 173,481 L 174,480 L 174,478 L 176,476 L 176,475 L 177,474 L 177,472 L 179,470 L 179,469 L 180,468 L 180,466 L 181,465 L 181,464 L 182,463 L 182,461 L 183,460 L 183,456 L 184,455 L 184,454 L 185,453 L 185,404 L 184,403 L 185,402 L 185,380 L 186,379 L 186,372 L 187,371 L 187,370 L 188,369 L 188,364 L 189,363 L 189,359 L 190,358 L 190,356 L 191,355 L 191,352 L 192,351 L 192,350 L 193,349 L 193,346 L 194,345 L 194,342 L 196,340 L 196,338 L 197,337 L 197,334 L 199,332 L 199,330 L 200,329 L 200,327 L 202,325 L 202,323 L 203,322 L 203,321 L 205,319 L 205,317 L 206,316 L 206,315 L 207,314 L 207,313 L 208,312 L 208,311 L 209,310 L 209,309 L 211,307 L 211,306 L 213,304 L 213,303 L 214,302 L 214,301 L 216,299 L 216,298 L 217,297 L 217,296 L 220,293 L 220,292 L 223,289 L 223,288 L 225,286 L 225,285 L 227,283 L 228,283 L 228,282 L 233,277 L 233,276 L 243,266 L 244,266 L 250,260 L 251,260 L 251,259 L 252,258 L 253,258 L 254,257 L 255,257 L 260,252 L 261,252 L 264,249 L 265,249 L 266,248 L 267,248 L 269,246 L 270,246 L 273,243 L 274,243 L 275,242 L 276,242 L 278,240 L 279,240 L 280,239 L 281,239 L 283,237 L 284,237 L 286,235 L 288,235 L 289,234 L 290,234 L 292,232 L 294,232 L 295,231 L 296,231 L 298,229 L 300,229 L 301,228 L 302,228 L 303,227 L 305,227 L 306,226 L 308,226 L 310,224 L 312,224 L 313,223 L 316,223 L 317,222 L 318,222 L 319,221 L 321,221 L 322,220 L 325,220 L 326,219 L 327,219 L 328,218 L 332,218 L 333,217 L 337,217 L 338,216 L 339,216 L 340,215 L 345,215 L 346,214 L 351,214 L 352,213 L 354,213 L 355,212 L 363,212 L 364,211 L 375,211 L 376,210 L 387,210 L 388,209 L 404,209 L 405,210 L 413,210 L 414,211 L 424,211 L 425,212 L 433,212 L 434,213 L 436,213 L 437,214 L 442,214 L 443,215 L 449,215 L 451,217 L 456,217 L 457,218 L 460,218 L 462,220 L 466,220 L 467,221 L 470,221 L 472,223 L 475,223 L 476,224 L 478,224 L 480,226 L 483,226 L 484,227 L 485,227 L 486,228 L 487,228 L 488,229 L 490,229 L 492,231 L 494,231 L 495,232 L 497,232 L 499,234 L 500,234 L 501,235 L 503,235 L 505,237 L 506,237 L 507,238 L 508,238 L 510,240 L 511,240 L 512,241 L 513,241 L 515,243 L 517,243 L 520,246 L 521,246 L 523,248 L 524,248 L 525,249 L 526,249 L 529,252 L 530,252 L 532,254 L 533,254 L 535,256 L 536,256 L 541,261 L 542,261 L 545,264 L 546,264 L 547,265 L 547,266 L 548,266 L 556,274 L 557,274 L 564,281 L 564,282 L 570,288 L 570,289 L 571,289 L 573,291 L 573,292 L 574,292 L 575,293 L 575,294 L 577,296 L 577,297 L 582,302 L 582,303 L 584,305 L 584,306 L 587,309 L 587,310 L 590,313 L 590,314 L 591,315 L 591,316 L 593,318 L 593,319 L 595,321 L 595,322 L 596,323 L 596,324 L 598,326 L 598,327 L 599,328 L 599,329 L 600,329 L 601,330 L 601,332 L 602,333 L 602,334 L 604,336 L 604,338 L 606,340 L 606,341 L 607,342 L 607,343 L 608,344 L 608,345 L 609,346 L 609,347 L 610,348 L 610,350 L 612,352 L 612,354 L 613,355 L 613,356 L 615,358 L 615,361 L 616,362 L 616,364 L 618,366 L 618,369 L 619,370 L 619,373 L 621,375 L 621,378 L 622,379 L 622,383 L 624,385 L 624,389 L 625,390 L 625,393 L 626,394 L 626,396 L 627,397 L 627,404 L 628,405 L 628,407 L 629,408 L 629,418 L 630,419 L 630,438 L 631,439 L 631,451 L 630,452 L 630,470 L 629,471 L 629,479 L 628,480 L 628,484 L 627,485 L 627,493 L 626,494 L 626,496 L 625,497 L 625,500 L 624,501 L 624,506 L 623,507 L 623,508 L 622,509 L 622,513 L 621,514 L 621,517 L 620,518 L 620,519 L 619,520 L 619,523 L 618,524 L 618,527 L 616,529 L 616,532 L 615,533 L 615,535 L 613,537 L 613,539 L 612,540 L 612,543 L 610,545 L 610,547 L 609,548 L 609,550 L 607,552 L 607,554 L 606,555 L 606,556 L 605,557 L 605,558 L 604,559 L 604,561 L 602,563 L 602,564 L 601,565 L 601,567 L 599,569 L 599,570 L 598,571 L 598,573 L 596,575 L 596,576 L 595,577 L 595,579 L 593,581 L 593,582 L 592,583 L 592,584 L 590,586 L 590,587 L 589,588 L 589,590 L 587,592 L 587,593 L 585,595 L 585,596 L 584,597 L 584,598 L 582,600 L 582,601 L 581,602 L 581,604 L 578,607 L 578,608 L 576,610 L 576,612 L 574,614 L 574,615 L 573,616 L 573,617 L 572,618 L 572,619 L 570,621 L 570,622 L 569,623 L 569,624 L 567,626 L 567,627 L 565,629 L 565,630 L 564,631 L 564,632 L 563,633 L 563,634 L 561,636 L 561,638 L 560,639 L 559,639 L 559,641 L 557,643 L 557,644 L 556,645 L 556,646 L 555,647 L 555,648 L 553,650 L 553,651 L 552,652 L 552,653 L 550,655 L 550,656 L 549,657 L 549,658 L 548,659 L 548,660 L 547,661 L 547,662 L 545,664 L 545,665 L 544,666 L 544,667 L 543,668 L 543,669 L 542,670 L 542,671 L 541,672 L 541,673 L 539,675 L 539,677 L 538,678 L 538,680 L 536,682 L 536,684 L 535,685 L 535,687 L 533,689 L 533,691 L 532,692 L 532,694 L 530,696 L 530,699 L 529,700 L 529,702 L 528,703 L 528,704 L 527,705 L 527,708 L 526,709 L 526,711 L 525,712 L 525,715 L 524,716 L 524,722 L 523,723 L 523,724 L 522,725 L 522,734 L 521,735 L 521,766 L 522,767 L 522,781 L 523,782 L 523,786 L 524,787 L 524,798 L 525,799 L 525,806 L 526,807 L 526,810 L 527,811 L 527,818 L 528,819 L 528,821 L 529,822 L 529,823 L 532,826 L 533,826 L 535,828 L 544,828 L 548,824 L 549,824 L 549,823 L 551,821 L 551,809 L 550,808 L 550,799 L 549,798 L 549,795 L 548,794 L 548,782 L 547,781 L 547,771 L 546,770 L 546,761 L 545,760 L 545,738 L 546,737 L 546,731 L 547,730 L 547,725 L 548,724 L 548,720 L 549,719 L 549,718 L 550,717 L 550,714 L 551,713 L 551,709 L 553,707 L 553,704 L 554,703 L 554,700 L 556,698 L 556,696 L 557,695 L 557,693 L 559,691 L 559,689 L 560,688 L 560,687 L 561,686 L 561,685 L 562,684 L 562,683 L 563,682 L 563,681 L 565,679 L 565,678 L 566,677 L 566,676 L 568,674 L 568,672 L 570,670 L 570,669 L 571,668 L 571,667 L 573,665 L 573,664 L 574,663 L 574,662 L 576,660 L 576,659 L 577,658 L 577,657 L 579,655 L 579,653 L 582,650 L 582,648 L 584,646 L 584,645 L 585,644 L 585,643 L 587,641 L 587,640 L 588,639 L 588,638 L 590,636 L 590,635 L 591,634 L 591,633 L 593,631 L 593,630 L 594,629 L 594,628 L 596,626 L 596,625 L 597,624 L 597,623 L 599,621 L 599,620 L 600,619 L 600,618 L 602,616 L 602,615 L 603,614 L 603,613 L 605,611 L 605,610 L 606,609 L 606,608 L 608,606 L 608,604 L 610,602 L 610,601 L 611,600 L 611,599 L 613,597 L 613,596 L 614,595 L 614,593 L 615,592 L 616,592 L 616,590 L 618,588 L 618,587 L 619,586 L 619,585 L 620,584 L 620,583 L 622,581 L 622,579 L 623,578 L 623,577 L 625,575 L 625,573 L 626,572 L 626,571 L 628,569 L 628,567 L 629,566 L 629,565 L 630,564 L 630,563 L 631,562 L 631,560 L 633,558 L 633,556 L 634,555 L 634,553 L 636,551 L 636,549 L 637,548 L 637,546 L 639,544 L 639,541 L 640,540 L 640,538 L 641,537 L 641,536 L 642,535 L 642,533 L 643,532 L 643,529 L 645,527 L 645,523 L 646,522 L 646,521 L 647,520 L 647,518 L 648,517 L 648,512 L 650,510 L 650,506 L 651,505 L 651,500 L 652,499 L 652,498 L 653,497 L 653,491 L 654,490 L 654,483 L 655,482 L 655,481 L 656,480 L 656,470 L 657,469 L 657,422 L 656,421 L 656,411 L 655,410 L 655,408 L 654,407 L 654,400 L 653,399 L 653,393 L 652,392 L 652,391 L 651,390 L 651,384 L 650,383 L 650,379 L 649,378 L 649,377 L 648,376 L 648,373 L 647,372 L 647,369 L 646,368 L 646,367 L 645,366 L 645,363 L 644,362 L 644,361 L 643,360 L 643,358 L 642,357 L 642,354 L 641,353 L 641,352 L 640,351 L 640,350 L 639,349 L 639,347 L 638,346 L 638,345 L 637,344 L 637,342 L 636,341 L 636,339 L 634,337 L 634,336 L 633,335 L 633,333 L 631,331 L 631,330 L 630,329 L 630,327 L 628,325 L 628,324 L 627,323 L 627,322 L 626,321 L 626,320 L 625,319 L 625,318 L 623,316 L 623,315 L 622,314 L 622,313 L 620,311 L 620,310 L 619,309 L 619,308 L 617,306 L 617,305 L 616,304 L 616,303 L 614,301 L 614,300 L 611,297 L 611,296 L 608,293 L 608,292 L 607,291 L 607,290 L 603,286 L 603,285 L 599,281 L 599,280 L 596,277 L 596,276 L 595,276 L 594,275 L 594,274 L 584,264 L 584,263 L 578,257 L 577,257 L 565,245 L 564,245 L 563,244 L 563,243 L 562,243 L 561,242 L 560,242 L 555,237 L 554,237 L 551,234 L 550,234 L 547,231 L 546,231 L 543,228 L 542,228 L 540,226 L 539,226 L 538,225 L 537,225 L 535,223 L 534,223 L 533,222 L 532,222 L 531,221 L 531,220 L 529,220 L 527,218 L 526,218 L 525,217 L 524,217 L 523,216 L 522,216 L 520,214 L 518,214 L 516,212 L 515,212 L 514,211 L 513,211 L 512,210 L 511,210 L 510,209 L 509,209 L 508,208 L 506,208 L 504,206 L 503,206 L 502,205 L 500,205 L 498,203 L 496,203 L 495,202 L 492,202 L 490,200 L 488,200 L 487,199 L 484,199 L 482,197 L 479,197 L 478,196 L 475,196 L 473,194 L 469,194 L 468,193 L 465,193 L 464,192 L 463,192 L 462,191 L 457,191 L 456,190 L 455,190 L 454,189 L 450,189 L 449,188 L 442,188 L 441,187 L 439,187 L 438,186 L 430,186 L 429,185 L 417,185 L 416,184 L 412,184 L 411,183 Z" fill="black"/><path d="M 668,153 L 667,154 L 665,154 L 662,157 L 661,157 L 661,158 L 660,159 L 659,159 L 658,160 L 658,161 L 657,162 L 656,162 L 655,163 L 655,164 L 654,165 L 653,165 L 652,166 L 652,167 L 651,168 L 650,168 L 649,169 L 649,170 L 648,171 L 647,171 L 647,172 L 645,174 L 644,174 L 644,175 L 643,176 L 642,176 L 641,177 L 641,178 L 640,179 L 639,179 L 638,180 L 638,181 L 637,182 L 636,182 L 635,183 L 635,184 L 634,185 L 633,185 L 632,186 L 632,187 L 631,188 L 630,188 L 630,189 L 628,191 L 627,191 L 627,192 L 625,194 L 624,194 L 624,195 L 623,196 L 622,196 L 621,197 L 621,198 L 620,199 L 619,199 L 618,200 L 618,201 L 617,202 L 616,202 L 615,203 L 615,204 L 614,205 L 613,205 L 609,209 L 609,210 L 608,211 L 607,211 L 607,212 L 606,213 L 606,214 L 605,215 L 605,222 L 607,224 L 607,226 L 608,226 L 611,229 L 622,229 L 622,228 L 624,226 L 625,226 L 625,225 L 626,224 L 627,224 L 628,223 L 628,222 L 629,221 L 630,221 L 631,220 L 631,219 L 632,218 L 633,218 L 634,217 L 634,216 L 635,215 L 636,215 L 637,214 L 637,213 L 638,212 L 639,212 L 645,206 L 645,205 L 646,204 L 647,204 L 648,203 L 648,202 L 649,201 L 650,201 L 651,200 L 651,199 L 652,198 L 653,198 L 654,197 L 654,196 L 655,195 L 656,195 L 657,194 L 657,193 L 658,192 L 659,192 L 659,191 L 661,189 L 662,189 L 668,183 L 668,182 L 669,181 L 670,181 L 676,175 L 677,175 L 679,173 L 679,172 L 680,171 L 680,170 L 682,168 L 682,159 L 677,154 L 675,154 L 674,153 Z" fill="#d16ba5"/><path d="M 120,152 L 119,153 L 117,153 L 116,154 L 115,154 L 112,157 L 112,158 L 111,159 L 111,160 L 110,161 L 110,166 L 111,167 L 111,168 L 112,169 L 112,170 L 113,171 L 113,172 L 116,175 L 117,175 L 120,178 L 121,178 L 172,229 L 182,229 L 182,228 L 183,227 L 185,227 L 186,226 L 186,224 L 188,222 L 188,216 L 186,214 L 186,211 L 129,154 L 127,154 L 125,152 Z" fill="#d16ba5"/><path d="M 547,66 L 545,68 L 544,68 L 542,70 L 541,70 L 541,72 L 539,74 L 539,75 L 538,76 L 538,78 L 536,80 L 536,81 L 535,82 L 535,84 L 533,86 L 533,88 L 532,89 L 532,91 L 530,93 L 530,95 L 529,96 L 529,97 L 527,99 L 527,101 L 526,102 L 526,103 L 525,104 L 525,105 L 524,106 L 524,107 L 523,108 L 523,109 L 522,110 L 522,112 L 521,113 L 521,114 L 519,116 L 519,118 L 518,119 L 518,121 L 517,122 L 516,122 L 516,124 L 515,125 L 515,127 L 513,129 L 513,131 L 512,132 L 512,133 L 511,134 L 511,135 L 510,136 L 510,137 L 509,138 L 509,140 L 507,142 L 507,149 L 508,150 L 508,151 L 510,153 L 510,154 L 511,155 L 512,155 L 514,157 L 522,157 L 524,155 L 525,155 L 528,152 L 528,151 L 529,150 L 529,149 L 530,148 L 530,147 L 531,146 L 531,144 L 533,142 L 533,141 L 534,140 L 534,138 L 536,136 L 536,134 L 537,133 L 537,132 L 539,130 L 539,128 L 540,127 L 540,126 L 541,125 L 541,124 L 542,123 L 542,121 L 544,119 L 544,118 L 545,117 L 545,115 L 547,113 L 547,111 L 548,110 L 548,109 L 550,107 L 550,105 L 551,104 L 551,102 L 553,100 L 553,98 L 554,97 L 554,95 L 556,93 L 556,92 L 557,91 L 557,89 L 559,87 L 559,85 L 560,84 L 560,83 L 561,82 L 561,81 L 562,80 L 562,73 L 560,71 L 560,70 L 558,68 L 557,68 L 555,66 Z" fill="#d16ba5"/><path d="M 240,66 L 238,68 L 236,68 L 231,73 L 231,75 L 230,76 L 230,81 L 232,83 L 232,84 L 233,85 L 233,87 L 235,89 L 235,90 L 236,91 L 236,93 L 238,95 L 238,97 L 239,98 L 239,99 L 241,101 L 241,103 L 242,104 L 242,105 L 244,107 L 244,109 L 245,110 L 245,112 L 247,114 L 247,116 L 248,117 L 248,118 L 250,120 L 250,122 L 252,124 L 252,126 L 253,127 L 253,129 L 254,129 L 255,130 L 255,132 L 256,133 L 256,135 L 258,137 L 258,138 L 259,139 L 259,141 L 261,143 L 261,144 L 262,145 L 262,147 L 264,149 L 264,150 L 265,151 L 265,153 L 269,157 L 280,157 L 280,156 L 281,155 L 282,155 L 285,152 L 285,150 L 286,149 L 286,143 L 285,142 L 285,140 L 283,138 L 283,137 L 282,136 L 282,133 L 280,131 L 280,130 L 279,129 L 279,127 L 277,125 L 277,123 L 276,122 L 276,121 L 274,119 L 274,117 L 273,116 L 273,114 L 271,112 L 271,110 L 269,108 L 269,107 L 268,106 L 268,104 L 266,102 L 266,100 L 265,99 L 265,98 L 263,96 L 263,94 L 262,93 L 262,92 L 260,90 L 260,88 L 259,87 L 259,85 L 258,85 L 257,84 L 257,81 L 256,80 L 256,79 L 254,77 L 254,76 L 252,74 L 252,73 L 251,72 L 251,70 L 250,70 L 248,68 L 246,68 L 244,66 Z" fill="#d16ba5"/><path d="M 390,31 L 385,36 L 385,41 L 384,42 L 385,43 L 385,125 L 387,127 L 387,128 L 389,130 L 390,130 L 391,131 L 393,131 L 394,132 L 398,132 L 399,131 L 401,131 L 406,126 L 406,123 L 407,122 L 407,120 L 406,119 L 406,110 L 407,109 L 407,102 L 406,101 L 406,37 L 405,36 L 405,35 L 401,31 Z" fill="#d16ba5"/>
</svg>